<svg id="visual" viewBox="0 0 960 540" width="960" height="540" xmlns="http://www.w3.org/2000/svg" xmlns:xlink="http://www.w3.org/1999/xlink" version="1.1"><rect x="0" y="0" width="960" height="540" fill="#262626"></rect><defs><linearGradient id="grad1_0" x1="43.8%" y1="0%" x2="100%" y2="100%"><stop offset="14.444444444444446%" stop-color="#262626" stop-opacity="1"></stop><stop offset="85.55555555555554%" stop-color="#262626" stop-opacity="1"></stop></linearGradient></defs><defs><linearGradient id="grad2_0" x1="0%" y1="0%" x2="56.3%" y2="100%"><stop offset="14.444444444444446%" stop-color="#262626" stop-opacity="1"></stop><stop offset="85.55555555555554%" stop-color="#262626" stop-opacity="1"></stop></linearGradient></defs><g transform="translate(960, 0)"><path d="M0 270C-37.8 268.9 -75.6 267.8 -103.3 249.4C-131.1 231.1 -148.8 195.5 -167.6 167.6C-186.4 139.6 -206.3 119.3 -223.6 92.6C-240.8 65.9 -255.4 33 -270 0L0 0Z" fill="#32e0b8"></path></g><g transform="translate(0, 540)"><path d="M0 -270C31.7 -253.8 63.3 -237.6 92.2 -222.7C121.1 -207.7 147.3 -193.9 175.4 -175.4C203.4 -156.8 233.4 -133.4 249.4 -103.3C265.5 -73.3 267.8 -36.6 270 0L0 0Z" fill="#32e0b8"></path></g></svg>