<svg id="visual" viewBox="0 0 960 540" width="960" height="540" xmlns="http://www.w3.org/2000/svg" xmlns:xlink="http://www.w3.org/1999/xlink" version="1.1"><g><g transform="translate(728 357)"><path d="M63.4 -53.5C78.2 -32 83.5 -5.9 79.9 21.5C76.3 48.9 63.7 77.6 41.5 89.6C19.3 101.5 -12.5 96.8 -37.5 82.9C-62.6 68.9 -80.9 45.8 -88.6 18.4C-96.4 -9.1 -93.6 -40.8 -77.1 -62.6C-60.6 -84.5 -30.3 -96.5 -3 -94.1C24.3 -91.7 48.6 -75 63.4 -53.5Z" fill="none" stroke="#32e0b8" stroke-width="20"></path></g><g transform="translate(72 252)"><path d="M65.8 -56.5C79.2 -35.6 79.8 -8.6 72.8 14.5C65.8 37.6 51.2 56.8 30.3 69.4C9.3 82 -17.9 88 -41.1 79.2C-64.2 70.4 -83.1 46.8 -87.4 21.8C-91.7 -3.3 -81.3 -30 -64.3 -51.6C-47.3 -73.3 -23.7 -90 1.3 -91C26.2 -92 52.4 -77.3 65.8 -56.5Z" fill="none" stroke="#32e0b8" stroke-width="20"></path></g></g></svg>